PathFileType	4	(X/Y/Z)	C:\Users\Tech_3\Documents\Nikita\PSYC9080\walk1.trc
DataRate	CameraRate	NumFrames	NumMarkers	Units	OrigDataRate	OrigDataStartFrame	OrigNumFrames
120.00	120.00	      18	16	mm	120.00	1576	      2520
Frame#	Time	R_1M			R_5M			R_CALC			R_MAL			R_KNEE			R_GT			R_ASIS			R_PSIS			L_1M			L_5M			L_CALC			L_MAL			L_KNEE			L_GT			L_ASIS			L_PSIS			
		X1	Y1	Z1	X2	Y2	Z2	X3	Y3	Z3	X4	Y4	Z4	X5	Y5	Z5	X6	Y6	Z6	X7	Y7	Z7	X8	Y8	Z8	X9	Y9	Z9	X10	Y10	Z10	X11	Y11	Z11	X12	Y12	Z12	X13	Y13	Z13	X14	Y14	Z14	X15	Y15	Z15	X16	Y16	Z16	

1576	13.125	237.09892	110.78497	723.34570	139.20988	96.67475	683.50183	234.82930	27.90171	535.36914	169.48300	135.08519	574.12006	170.11574	504.90421	532.90594	114.34943	849.72955	385.56403	215.36665	903.28900	462.63342	246.24452	971.81073	230.13467	301.84344	55.18898	284.24329	397.13583	54.88051	272.66443	338.92090	37.08448	79.49240	388.34360	108.36742	163.19269	417.94296	490.72006	295.54987	493.68558	812.47314	362.85068	409.66846	902.91516	451.28851	321.04904	973.62299	225.37563	
1577	13.133	238.02034	116.71753	736.57935	139.66718	101.47955	699.06104	232.59047	26.64363	552.50049	168.40309	135.70012	587.61469	169.90289	502.45932	530.99005	113.71407	847.59857	386.20865	215.14482	901.23499	462.67322	244.50606	969.91302	229.88824	301.61057	54.96008	274.78720	397.08896	54.61950	263.35599	338.75580	37.85124	70.38018	387.99310	109.04610	154.42125	417.55069	489.77390	291.47839	493.49500	811.35638	361.24808	409.65668	901.72522	450.52563	319.35086	971.90790	224.63493	
1578	13.142	239.19699	122.71894	748.66180	140.82370	106.09409	713.04865	231.12511	25.77037	568.16150	167.76404	136.41345	599.78247	170.06070	500.01532	529.35901	113.53461	845.34076	387.03979	215.12161	899.28577	462.89029	242.93146	968.01202	229.78256	301.49634	54.59705	265.81967	396.72842	54.27081	254.09341	338.77942	38.69448	61.13678	387.69949	109.43573	145.81964	417.13458	488.76370	287.78754	492.94693	809.99774	359.46036	409.32306	900.16528	449.37656	317.31583	970.34619	224.06776	
1579	13.150	240.63194	128.20982	758.89496	141.66901	110.76601	725.33478	230.82037	25.37415	582.12878	167.61882	137.10635	610.61273	169.68027	497.62872	527.74884	112.84420	843.39319	387.79852	214.82457	897.34314	463.00638	241.44118	966.01331	229.68526	301.39606	54.40684	256.57907	397.13193	54.32178	244.72212	338.51971	39.97440	51.89811	387.67160	110.06786	137.19209	416.66165	487.78253	284.23318	492.29459	808.73401	358.13748	409.48660	899.10645	448.22229	315.98901	968.54779	223.73428	
1580	13.158	242.99969	133.29268	767.79926	142.39954	114.91714	735.55634	229.45705	25.62658	593.74042	167.38840	138.07501	619.94360	169.46376	495.54297	526.40210	112.44860	841.45233	388.58441	214.63419	895.73132	463.72806	239.97925	964.04968	229.68649	301.99506	53.96642	247.89188	397.00739	53.92050	235.47292	338.46713	41.55709	42.69977	387.53668	111.00901	128.97664	416.45969	486.99258	281.44281	491.72324	807.82526	356.43381	408.93533	897.99115	447.51294	314.14725	966.97107	223.30652	
1581	13.167	243.96928	136.89793	774.66815	144.51707	117.91341	744.57922	229.03162	25.61598	603.26929	167.50423	138.96593	627.71777	169.19371	493.59332	525.52002	111.50632	839.55237	389.40350	214.54672	894.03070	463.79016	238.08255	962.06329	229.59239	301.54617	53.76812	238.62794	396.85028	53.67316	226.41953	338.93945	42.99594	33.76578	387.15384	112.02408	120.59869	415.99887	485.73093	278.80310	491.20865	806.87109	355.55057	408.42383	896.85895	447.00742	312.22650	965.33270	223.01776	
1582	13.175	246.18263	139.29213	779.43115	146.73291	120.46587	751.42932	227.86148	25.55933	610.12177	167.53088	139.46809	633.78497	168.97552	492.11130	525.12537	111.02964	838.02405	390.50528	214.24022	892.66827	464.22760	236.59473	960.28442	229.74376	301.71356	53.55981	229.62479	396.71701	53.47466	217.28871	339.29401	45.06705	24.70879	387.33798	113.33641	112.35979	415.63672	484.72290	276.55048	490.56784	805.54755	354.48672	407.91705	894.49829	446.89240	310.88910	963.68256	222.96782	
1583	13.183	248.60594	140.37585	782.59967	147.49510	121.95111	755.70026	227.44371	25.00944	614.85638	167.90414	139.44385	638.13037	168.62294	490.65591	525.28839	110.11575	836.36536	391.40018	213.75677	891.11432	464.77811	234.91522	958.56403	229.99763	301.21939	53.32094	220.51038	396.99060	53.33248	208.24263	338.23587	47.65408	15.52546	387.45657	114.51592	104.41714	415.07251	483.70966	274.37747	489.97897	804.70972	353.54160	407.47290	893.19958	446.21219	308.96286	962.22699	222.95699	
1584	13.192	250.72157	139.73586	783.59686	150.49312	121.72410	758.79486	227.26926	23.50017	616.93939	168.08539	138.98517	640.54254	169.06097	489.36966	526.08484	109.98190	835.14203	392.81442	213.02908	890.22430	465.29898	233.44391	957.02216	230.34612	301.37640	53.07093	211.68915	396.93689	53.09455	199.01480	338.40155	50.45201	6.51412	387.70255	116.27496	96.52916	414.68304	482.73480	272.82794	488.89713	803.89240	352.89795	407.03110	892.23236	445.91312	307.57864	960.72601	223.05119	
1585	13.200	253.16809	137.95419	782.79114	152.08592	120.23249	759.35742	226.00159	22.54709	615.79370	168.35814	137.47717	641.13232	168.99519	488.40930	527.83380	109.38733	833.94031	393.99146	212.16373	889.20520	465.93704	232.14270	955.62677	230.93201	301.49191	52.97947	202.69438	397.16257	52.79919	190.13600	339.03174	53.43795	-2.16767	388.04068	117.80769	88.82899	414.27777	481.91440	271.26648	488.11316	802.97333	352.53680	406.49377	891.09393	445.77441	306.28271	959.34271	223.41179	
1586	13.208	255.62015	134.29506	780.14807	153.58389	117.14641	758.23193	225.71432	21.02613	612.27545	168.53676	135.61400	639.73590	169.16615	487.57593	528.63855	108.60824	832.93152	395.49332	212.00804	887.86108	467.21384	230.67267	954.35913	231.76135	301.75235	52.72300	193.75710	397.36267	52.84138	181.09755	339.72833	56.92163	-10.65628	388.21085	119.91164	81.13953	413.76361	481.02457	270.18219	487.48306	801.88000	352.48962	406.17657	889.80530	445.78476	304.53354	958.12219	223.92566	
1587	13.217	257.34244	128.96706	775.99426	155.18817	112.69303	754.52655	224.79518	20.19135	605.25409	168.80370	133.04224	636.47198	169.47522	486.74164	530.35730	107.50207	832.28522	396.79904	211.43813	887.00018	468.50378	229.22055	953.31647	232.77159	301.54742	52.49566	184.86034	397.52814	52.70190	172.06004	339.28934	61.07813	-19.32252	388.48303	122.07852	74.03878	413.30066	480.29056	269.39529	486.67770	800.88788	352.60153	405.62308	889.15326	446.30853	302.99829	957.09680	224.61803	
1588	13.225	259.22043	122.39889	769.69482	156.70088	106.53258	749.37341	224.78188	20.02942	596.06250	169.32213	129.86102	631.52417	169.59848	485.99426	531.91296	106.81545	831.61609	398.57184	210.69870	886.29895	469.99936	228.09842	952.54730	234.08275	301.60617	52.26134	176.00093	397.55499	52.25517	163.19092	339.44495	65.54431	-27.60240	389.13464	124.66410	66.84534	412.81885	479.54871	268.87091	485.76013	800.06079	352.96631	404.55603	888.42383	447.23239	301.81216	956.19574	225.62976	
1589	13.233	260.95499	115.61274	762.98730	157.95587	100.36491	743.39020	224.31772	19.84073	586.54510	169.65694	126.45522	625.28027	169.86839	485.01782	533.44159	106.09732	831.20520	400.39835	209.88658	885.86932	471.65247	226.57219	952.00275	235.49881	301.25827	52.04008	167.07172	397.25549	52.21441	154.46210	339.24454	70.60851	-35.91669	388.92023	127.23681	59.78804	412.27261	478.86749	268.82318	484.68918	799.27948	353.30148	403.86652	887.61615	447.79715	300.48975	955.34131	227.05635	
1590	13.242	261.82834	110.06628	756.25006	158.90866	95.03328	737.03198	224.33589	19.88705	577.35651	169.51584	123.46396	619.29016	169.98978	484.01282	534.38422	105.09561	830.94623	402.38727	208.99585	885.50018	473.46347	225.23026	951.66858	237.12840	301.36420	51.80703	158.23314	397.87900	52.29321	145.60835	340.24115	75.74342	-43.52188	389.48541	130.12891	53.28650	411.40048	478.01361	269.22375	483.56137	798.56305	354.15424	403.06006	886.93152	448.33963	298.92548	954.79962	228.42014	
1591	13.250	262.19913	104.77384	750.41772	159.14671	89.76088	730.71948	224.44835	20.79207	568.51978	169.71884	121.50765	613.90961	170.17931	483.20877	534.78143	104.03188	830.71942	404.55756	208.37720	885.35150	475.38712	223.93187	951.48718	238.96942	301.93771	51.49014	149.73611	397.70102	52.25447	136.69954	339.16879	81.91491	-51.25071	389.72015	133.50272	46.88155	410.70886	477.22977	270.01407	482.49222	797.88153	355.21188	402.54099	886.07184	450.28943	297.87238	954.55798	230.21997	
1592	13.258	261.57529	98.75589	745.19263	159.02702	84.01634	724.41748	224.71265	21.67204	559.64063	170.34006	119.88651	608.95752	169.97507	482.37247	534.62744	103.07786	830.76251	406.89001	207.69913	885.23376	477.36725	222.26846	951.68457	240.92029	302.13229	51.04231	141.33253	397.88754	52.33109	128.26364	339.01993	88.34527	-58.22173	389.72495	136.87369	40.89425	409.93933	476.42017	271.39633	481.04321	797.10803	356.34793	401.41220	885.57037	452.03372	296.43729	954.42859	231.91069	
1593	13.267	261.41473	93.16199	738.52979	158.75903	78.32316	717.76105	224.29454	22.91978	550.54242	169.83682	118.26894	603.39337	169.25475	482.04691	533.89880	101.80156	830.93079	409.32132	206.86292	885.27722	479.33859	221.14310	951.91650	243.10036	301.90320	50.74670	132.82977	397.96384	52.53534	119.75484	338.84082	95.34203	-64.61374	389.93042	140.90036	35.74775	409.17709	475.77197	273.46552	480.24005	796.74237	357.79590	400.52896	884.61792	453.65375	295.06503	954.48877	233.77284	
